<svg width="1200" height="800" viewBox="0 0 1200 800" fill="none" xmlns="http://www.w3.org/2000/svg">
  <rect width="1200" height="800" fill="#101827"/>
  <rect x="72" y="72" width="1056" height="656" rx="28" fill="#172236"/>
  <rect x="120" y="130" width="390" height="540" rx="22" fill="#0F172A"/>
  <rect x="560" y="130" width="520" height="540" rx="22" fill="#0F172A"/>
  <text x="150" y="190" fill="#F8FAFC" font-family="Inter, Arial, sans-serif" font-size="40" font-weight="700">AI Resume Analyzer</text>
  <text x="150" y="230" fill="#94A3B8" font-family="Inter, Arial, sans-serif" font-size="22">Resume parsing and smart suggestions</text>
  <rect x="155" y="300" width="300" height="18" rx="9" fill="#CBD5E1"/>
  <rect x="155" y="345" width="260" height="14" rx="7" fill="#475569"/>
  <rect x="155" y="380" width="315" height="14" rx="7" fill="#475569"/>
  <rect x="155" y="415" width="215" height="14" rx="7" fill="#475569"/>
  <rect x="155" y="510" width="190" height="56" rx="28" fill="#F59E0B"/>
  <text x="195" y="547" fill="#111827" font-family="Inter, Arial, sans-serif" font-size="22" font-weight="700">Analyze</text>
  <circle cx="640" cy="210" r="34" fill="#38BDF8"/>
  <path d="M632 210L640 218L656 198" stroke="#0F172A" stroke-width="9" stroke-linecap="round" stroke-linejoin="round"/>
  <rect x="700" y="188" width="275" height="18" rx="9" fill="#F8FAFC"/>
  <rect x="700" y="224" width="210" height="12" rx="6" fill="#64748B"/>
  <rect x="620" y="310" width="390" height="70" rx="18" fill="#172A43"/>
  <rect x="650" y="336" width="230" height="16" rx="8" fill="#CBD5E1"/>
  <rect x="620" y="420" width="390" height="70" rx="18" fill="#172A43"/>
  <rect x="650" y="446" width="275" height="16" rx="8" fill="#CBD5E1"/>
  <rect x="620" y="530" width="390" height="70" rx="18" fill="#172A43"/>
  <rect x="650" y="556" width="250" height="16" rx="8" fill="#CBD5E1"/>
  <path d="M1005 185C1050 240 1040 335 995 380" stroke="#F59E0B" stroke-width="10" stroke-linecap="round"/>
  <path d="M1015 430C1050 485 1035 575 985 620" stroke="#F59E0B" stroke-width="10" stroke-linecap="round"/>
</svg>
